<?xml version="1.0" standalone="no"?><!DOCTYPE svg PUBLIC "-//W3C//DTD SVG 1.1//EN" "http://www.w3.org/Graphics/SVG/1.1/DTD/svg11.dtd"><svg t="1539325433507" class="icon" style="" viewBox="0 0 1024 1024" version="1.1" xmlns="http://www.w3.org/2000/svg" p-id="1956" xmlns:xlink="http://www.w3.org/1999/xlink" width="64" height="64"><defs><style type="text/css"></style></defs><path d="M512 57.5C261.4 57.5 57.5 261.4 57.5 512S261.4 966.5 512 966.5 966.5 762.6 966.5 512 762.6 57.5 512 57.5z m-2 664.6c-26.1 0-47.4-20.8-47.4-46.4 0-25.6 21.2-46.4 47.4-46.4 26.1 0 47.4 20.8 47.4 46.4 0 25.6-21.2 46.4-47.4 46.4z m127.2-262.6c-9.3 14.6-29 34.5-59.2 59.6-15.6 13-25.4 23.5-29.1 31.4-3.8 7.9-5.5 22.1-5.2 42.5h-67.4c-0.1-9.7-0.3-15.6-0.3-17.7 0-21.8 3.6-39.8 10.8-53.9 7.2-14.1 21.7-30 43.3-47.5 21.6-17.6 34.6-29.1 38.8-34.6 6.5-8.6 9.8-18.1 9.8-28.5 0-14.4-5.8-26.7-17.3-37s-27.2-15.4-46.7-15.4c-18.9 0-34.7 5.4-47.4 16.1-12.7 10.7-23.6 34.3-26.2 48.9-2.4 13.8-68.9 19.6-68.1-8.3 0.8-28 15.3-58.3 40.3-80.3 24.9-22 57.7-33 98.2-33 42.6 0 76.5 11.1 101.7 33.4 25.2 22.3 37.8 48.2 37.8 77.8 0.1 16.5-4.6 31.9-13.8 46.5z" fill="#4dbeca" p-id="1957" data-spm-anchor-id="a313x.7781069.0.i3" class="selected"></path></svg>