<?xml version="1.0" standalone="no"?><!DOCTYPE svg PUBLIC "-//W3C//DTD SVG 1.1//EN" "http://www.w3.org/Graphics/SVG/1.1/DTD/svg11.dtd"><svg t="1539763361041" class="icon" style="" viewBox="0 0 1024 1024" version="1.1" xmlns="http://www.w3.org/2000/svg" p-id="4483" xmlns:xlink="http://www.w3.org/1999/xlink" width="64" height="64"><defs><style type="text/css"></style></defs><path d="M512 977.454545C254.929455 977.454545 46.545455 769.070545 46.545455 512S254.929455 46.545455 512 46.545455s465.454545 208.384 465.454545 465.454545-208.384 465.454545-465.454545 465.454545z m-241.803636-321.442909a1405.393455 1405.393455 0 0 0 117.713454-35.793454v137.541818h51.153455v-41.797818l27.461818 44.544c55.016727-29.696 100.165818-66.001455 135.912727-108.916364a655.825455 655.825455 0 0 0 117.154909 113.338182l35.746909-42.356364a636.369455 636.369455 0 0 1-121.018181-115.525818c37.422545-62.696727 58.88-136.983273 63.301818-222.813091h43.426909V333.079273h-173.847273c5.538909-22.528 11.031273-46.731636 15.406546-72.052364l-52.224-8.797091c-15.406545 96.814545-45.149091 173.847273-88.576 231.051637l31.883636 39.563636c9.914182-12.101818 19.828364-24.715636 29.184-39.005091 18.152727 43.985455 40.680727 85.783273 67.630545 124.834909-33.000727 41.797818-76.986182 76.474182-131.444363 102.865455V256.651636h-51.2v313.530182c-22.528 8.843636-45.056 16.523636-68.189091 23.645091V302.312727H268.567273v293.701818c0 7.168-4.933818 12.660364-13.730909 15.965091l15.36 44.032z m281.088-271.778909c-5.538909 15.406545-11.589818 29.742545-18.152728 44.032 17.594182 48.407273 40.680727 92.951273 68.189091 133.678546 27.508364-50.641455 42.914909-110.033455 46.778182-177.710546h-96.814545z" p-id="4484" fill="#1296db"></path></svg>