<?xml version="1.0" standalone="no"?><!DOCTYPE svg PUBLIC "-//W3C//DTD SVG 1.1//EN" "http://www.w3.org/Graphics/SVG/1.1/DTD/svg11.dtd"><svg t="1539763083266" class="icon" style="" viewBox="0 0 1024 1024" version="1.1" xmlns="http://www.w3.org/2000/svg" p-id="2964" xmlns:xlink="http://www.w3.org/1999/xlink" width="64" height="64"><defs><style type="text/css"></style></defs><path d="M418.406 525.517h61.645c24.576 49.357 53.248 89.497 86.221 120.627 42.598-36.045 78.029-87.04 105.882-152.78H433.152l-14.746 32.153z" fill="#D81E06" p-id="2965"></path><path d="M512 63.488C264.192 63.488 63.488 264.192 63.488 512S264.192 960.512 512 960.512 960.512 759.808 960.512 512 759.808 63.488 512 63.488z m285.696 311.91H477.594c-6.554 26.215-14.746 51.815-24.576 76.39H741.17v44.238c-31.13 75.57-74.752 137.216-130.457 184.73 34.406 24.575 93.593 48.537 177.356 71.474v39.322c-96.87-22.938-170.803-49.357-221.798-78.848-57.549 31.13-133.12 57.549-226.714 78.848V752.23c82.125-21.299 143.77-45.875 184.73-73.932-41.165-34.407-78.029-82.944-110.797-145.408-34.406 67.379-96.051 138.854-184.73 214.22V702.67c93.594-101.786 154.42-210.944 182.273-327.68H250.88v-44.237c13.107-29.491 22.938-59.187 29.491-88.678h64.103c-9.83 34.406-21.3 64.102-34.407 88.678h113.255c3.276-13.107 7.372-32.768 12.288-59.187l7.372-44.237h66.56c-4.915 36.045-11.468 70.656-19.66 103.424h157.696v-88.678h58.982v88.678h91.136v44.646z" fill="#D81E06" p-id="2966"></path></svg>